<svg xmlns="http://www.w3.org/2000/svg" width="1200" height="1200" viewBox="0 0 1200 1200"><defs><filter id="blur" x="-50%" y="-50%" width="200%" height="200%"><feGaussianBlur stdDeviation="70"/></filter><radialGradient id="abg" cx="50%" cy="42%" r="75%"><stop offset="0" stop-color="#23201F"/><stop offset=".6" stop-color="#121212"/><stop offset="1" stop-color="#050505"/></radialGradient><radialGradient id="face" cx="50%" cy="45%" r="55%"><stop offset="0" stop-color="#1D1D1F"/><stop offset="1" stop-color="#0B0B0C"/></radialGradient><linearGradient id="rim" x1="0" y1="0" x2="1" y2="1"><stop offset="0" stop-color="#9A9A9E"/><stop offset=".5" stop-color="#2A2A2D"/><stop offset="1" stop-color="#8A8A8E"/></linearGradient></defs><rect width="1200" height="1200" fill="url(#abg)"/><circle cx="161" cy="1017" r="0.8" fill="#fff" opacity="0.24"/><circle cx="595" cy="539" r="1.7" fill="#fff" opacity="0.50"/><circle cx="113" cy="34" r="1.7" fill="#fff" opacity="0.33"/><circle cx="915" cy="3" r="1.7" fill="#fff" opacity="0.25"/><circle cx="962" cy="709" r="0.8" fill="#fff" opacity="0.55"/><circle cx="37" cy="31" r="0.8" fill="#fff" opacity="0.57"/><circle cx="457" cy="260" r="1.7" fill="#fff" opacity="0.47"/><circle cx="633" cy="916" r="1.7" fill="#fff" opacity="0.39"/><circle cx="415" cy="812" r="1.7" fill="#fff" opacity="0.58"/><circle cx="1112" cy="499" r="0.8" fill="#fff" opacity="0.21"/><circle cx="1191" cy="1032" r="0.8" fill="#fff" opacity="0.48"/><circle cx="1075" cy="1168" r="1.7" fill="#fff" opacity="0.36"/><circle cx="1092" cy="228" r="1.3" fill="#fff" opacity="0.40"/><circle cx="1059" cy="1015" r="1.7" fill="#fff" opacity="0.40"/><circle cx="41" cy="291" r="1.7" fill="#fff" opacity="0.32"/><circle cx="208" cy="659" r="1.3" fill="#fff" opacity="0.16"/><circle cx="797" cy="130" r="1" fill="#fff" opacity="0.37"/><circle cx="472" cy="588" r="0.8" fill="#fff" opacity="0.35"/><circle cx="370" cy="1018" r="1.7" fill="#fff" opacity="0.43"/><circle cx="202" cy="272" r="0.8" fill="#fff" opacity="0.49"/><circle cx="648" cy="1032" r="1" fill="#fff" opacity="0.31"/><circle cx="413" cy="1017" r="1.3" fill="#fff" opacity="0.34"/><circle cx="323" cy="658" r="0.8" fill="#fff" opacity="0.30"/><circle cx="1028" cy="1146" r="1" fill="#fff" opacity="0.37"/><circle cx="674" cy="511" r="0.8" fill="#fff" opacity="0.35"/><circle cx="438" cy="665" r="1.7" fill="#fff" opacity="0.35"/><circle cx="428" cy="415" r="1.3" fill="#fff" opacity="0.34"/><circle cx="34" cy="276" r="1" fill="#fff" opacity="0.38"/><circle cx="217" cy="110" r="1.3" fill="#fff" opacity="0.14"/><circle cx="1132" cy="85" r="0.8" fill="#fff" opacity="0.34"/><circle cx="905" cy="337" r="1.3" fill="#fff" opacity="0.17"/><circle cx="750" cy="413" r="0.8" fill="#fff" opacity="0.20"/><circle cx="306" cy="1142" r="1.3" fill="#fff" opacity="0.43"/><circle cx="353" cy="843" r="1.7" fill="#fff" opacity="0.35"/><circle cx="28" cy="464" r="1.7" fill="#fff" opacity="0.50"/><circle cx="310" cy="304" r="1" fill="#fff" opacity="0.58"/><circle cx="518" cy="1171" r="1" fill="#fff" opacity="0.13"/><circle cx="176" cy="863" r="1" fill="#fff" opacity="0.33"/><circle cx="608" cy="512" r="1" fill="#fff" opacity="0.59"/><circle cx="757" cy="834" r="1.7" fill="#fff" opacity="0.23"/><circle cx="778" cy="474" r="1.3" fill="#fff" opacity="0.44"/><circle cx="512" cy="885" r="1" fill="#fff" opacity="0.58"/><circle cx="1051" cy="368" r="0.8" fill="#fff" opacity="0.27"/><circle cx="1127" cy="893" r="1.7" fill="#fff" opacity="0.39"/><circle cx="156" cy="673" r="0.8" fill="#fff" opacity="0.40"/><circle cx="261" cy="1081" r="1.7" fill="#fff" opacity="0.20"/><circle cx="1041" cy="1169" r="0.8" fill="#fff" opacity="0.30"/><circle cx="416" cy="247" r="1.7" fill="#fff" opacity="0.40"/><circle cx="591" cy="1126" r="1.7" fill="#fff" opacity="0.26"/><circle cx="600" cy="390" r="1.7" fill="#fff" opacity="0.55"/><circle cx="22" cy="241" r="1.3" fill="#fff" opacity="0.51"/><circle cx="676" cy="162" r="1.7" fill="#fff" opacity="0.22"/><circle cx="809" cy="1005" r="1.3" fill="#fff" opacity="0.56"/><circle cx="1005" cy="641" r="1" fill="#fff" opacity="0.15"/><circle cx="48" cy="160" r="1" fill="#fff" opacity="0.56"/><circle cx="256" cy="911" r="1.3" fill="#fff" opacity="0.30"/><circle cx="408" cy="349" r="1.7" fill="#fff" opacity="0.18"/><circle cx="661" cy="125" r="0.8" fill="#fff" opacity="0.32"/><circle cx="456" cy="1189" r="1" fill="#fff" opacity="0.52"/><circle cx="409" cy="738" r="1.7" fill="#fff" opacity="0.16"/><circle cx="660" cy="679" r="1.3" fill="#fff" opacity="0.30"/><circle cx="355" cy="641" r="0.8" fill="#fff" opacity="0.34"/><circle cx="333" cy="944" r="1.3" fill="#fff" opacity="0.13"/><circle cx="804" cy="110" r="0.8" fill="#fff" opacity="0.52"/><circle cx="948" cy="226" r="1.7" fill="#fff" opacity="0.20"/><circle cx="541" cy="817" r="1" fill="#fff" opacity="0.48"/><circle cx="123" cy="1093" r="1.7" fill="#fff" opacity="0.51"/><circle cx="652" cy="982" r="1.3" fill="#fff" opacity="0.46"/><circle cx="377" cy="249" r="1.3" fill="#fff" opacity="0.14"/><circle cx="13" cy="1179" r="1.3" fill="#fff" opacity="0.47"/><circle cx="384" cy="470" r="1.7" fill="#fff" opacity="0.15"/><circle cx="1096" cy="1164" r="1.7" fill="#fff" opacity="0.17"/><circle cx="258" cy="741" r="1.7" fill="#fff" opacity="0.44"/><circle cx="311" cy="650" r="1.3" fill="#fff" opacity="0.22"/><circle cx="433" cy="984" r="0.8" fill="#fff" opacity="0.59"/><circle cx="537" cy="782" r="1.3" fill="#fff" opacity="0.57"/><circle cx="469" cy="368" r="1.3" fill="#fff" opacity="0.21"/><circle cx="951" cy="695" r="1.3" fill="#fff" opacity="0.24"/><circle cx="121" cy="734" r="0.8" fill="#fff" opacity="0.24"/><circle cx="24" cy="293" r="0.8" fill="#fff" opacity="0.25"/><circle cx="1041" cy="875" r="0.8" fill="#fff" opacity="0.42"/><circle cx="349" cy="951" r="1.7" fill="#fff" opacity="0.35"/><circle cx="1031" cy="121" r="1.3" fill="#fff" opacity="0.16"/><circle cx="1139" cy="208" r="1" fill="#fff" opacity="0.59"/><circle cx="986" cy="384" r="0.8" fill="#fff" opacity="0.46"/><circle cx="1002" cy="722" r="1" fill="#fff" opacity="0.55"/><circle cx="170" cy="1093" r="0.8" fill="#fff" opacity="0.49"/><circle cx="985" cy="748" r="1" fill="#fff" opacity="0.21"/><circle cx="519" cy="189" r="1" fill="#fff" opacity="0.24"/><circle cx="77" cy="1156" r="1.7" fill="#fff" opacity="0.38"/><circle cx="600" cy="600" r="520" fill="url(#face)" stroke="url(#rim)" stroke-width="14"/><circle cx="600.0" cy="130.0" r="5" fill="#fff" opacity="0.55"/><circle cx="649.1" cy="132.6" r="2.4" fill="#fff" opacity="0.28"/><circle cx="697.7" cy="140.3" r="2.4" fill="#fff" opacity="0.28"/><circle cx="745.2" cy="153.0" r="2.4" fill="#fff" opacity="0.28"/><circle cx="791.2" cy="170.6" r="2.4" fill="#fff" opacity="0.28"/><circle cx="835.0" cy="193.0" r="5" fill="#fff" opacity="0.55"/><circle cx="876.3" cy="219.8" r="2.4" fill="#fff" opacity="0.28"/><circle cx="914.5" cy="250.7" r="2.4" fill="#fff" opacity="0.28"/><circle cx="949.3" cy="285.5" r="2.4" fill="#fff" opacity="0.28"/><circle cx="980.2" cy="323.7" r="2.4" fill="#fff" opacity="0.28"/><circle cx="1007.0" cy="365.0" r="5" fill="#fff" opacity="0.55"/><circle cx="1029.4" cy="408.8" r="2.4" fill="#fff" opacity="0.28"/><circle cx="1047.0" cy="454.8" r="2.4" fill="#fff" opacity="0.28"/><circle cx="1059.7" cy="502.3" r="2.4" fill="#fff" opacity="0.28"/><circle cx="1067.4" cy="550.9" r="2.4" fill="#fff" opacity="0.28"/><circle cx="1070.0" cy="600.0" r="5" fill="#fff" opacity="0.55"/><circle cx="1067.4" cy="649.1" r="2.4" fill="#fff" opacity="0.28"/><circle cx="1059.7" cy="697.7" r="2.4" fill="#fff" opacity="0.28"/><circle cx="1047.0" cy="745.2" r="2.4" fill="#fff" opacity="0.28"/><circle cx="1029.4" cy="791.2" r="2.4" fill="#fff" opacity="0.28"/><circle cx="1007.0" cy="835.0" r="5" fill="#fff" opacity="0.55"/><circle cx="980.2" cy="876.3" r="2.4" fill="#fff" opacity="0.28"/><circle cx="949.3" cy="914.5" r="2.4" fill="#fff" opacity="0.28"/><circle cx="914.5" cy="949.3" r="2.4" fill="#fff" opacity="0.28"/><circle cx="876.3" cy="980.2" r="2.4" fill="#fff" opacity="0.28"/><circle cx="835.0" cy="1007.0" r="5" fill="#fff" opacity="0.55"/><circle cx="791.2" cy="1029.4" r="2.4" fill="#fff" opacity="0.28"/><circle cx="745.2" cy="1047.0" r="2.4" fill="#fff" opacity="0.28"/><circle cx="697.7" cy="1059.7" r="2.4" fill="#fff" opacity="0.28"/><circle cx="649.1" cy="1067.4" r="2.4" fill="#fff" opacity="0.28"/><circle cx="600.0" cy="1070.0" r="5" fill="#fff" opacity="0.55"/><circle cx="550.9" cy="1067.4" r="2.4" fill="#fff" opacity="0.28"/><circle cx="502.3" cy="1059.7" r="2.4" fill="#fff" opacity="0.28"/><circle cx="454.8" cy="1047.0" r="2.4" fill="#fff" opacity="0.28"/><circle cx="408.8" cy="1029.4" r="2.4" fill="#fff" opacity="0.28"/><circle cx="365.0" cy="1007.0" r="5" fill="#fff" opacity="0.55"/><circle cx="323.7" cy="980.2" r="2.4" fill="#fff" opacity="0.28"/><circle cx="285.5" cy="949.3" r="2.4" fill="#fff" opacity="0.28"/><circle cx="250.7" cy="914.5" r="2.4" fill="#fff" opacity="0.28"/><circle cx="219.8" cy="876.3" r="2.4" fill="#fff" opacity="0.28"/><circle cx="193.0" cy="835.0" r="5" fill="#fff" opacity="0.55"/><circle cx="170.6" cy="791.2" r="2.4" fill="#fff" opacity="0.28"/><circle cx="153.0" cy="745.2" r="2.4" fill="#fff" opacity="0.28"/><circle cx="140.3" cy="697.7" r="2.4" fill="#fff" opacity="0.28"/><circle cx="132.6" cy="649.1" r="2.4" fill="#fff" opacity="0.28"/><circle cx="130.0" cy="600.0" r="5" fill="#fff" opacity="0.55"/><circle cx="132.6" cy="550.9" r="2.4" fill="#fff" opacity="0.28"/><circle cx="140.3" cy="502.3" r="2.4" fill="#fff" opacity="0.28"/><circle cx="153.0" cy="454.8" r="2.4" fill="#fff" opacity="0.28"/><circle cx="170.6" cy="408.8" r="2.4" fill="#fff" opacity="0.28"/><circle cx="193.0" cy="365.0" r="5" fill="#fff" opacity="0.55"/><circle cx="219.8" cy="323.7" r="2.4" fill="#fff" opacity="0.28"/><circle cx="250.7" cy="285.5" r="2.4" fill="#fff" opacity="0.28"/><circle cx="285.5" cy="250.7" r="2.4" fill="#fff" opacity="0.28"/><circle cx="323.7" cy="219.8" r="2.4" fill="#fff" opacity="0.28"/><circle cx="365.0" cy="193.0" r="5" fill="#fff" opacity="0.55"/><circle cx="408.8" cy="170.6" r="2.4" fill="#fff" opacity="0.28"/><circle cx="454.8" cy="153.0" r="2.4" fill="#fff" opacity="0.28"/><circle cx="502.3" cy="140.3" r="2.4" fill="#fff" opacity="0.28"/><circle cx="550.9" cy="132.6" r="2.4" fill="#fff" opacity="0.28"/><ellipse cx="600" cy="600" rx="330" ry="160" fill="#F2561D" opacity=".28" filter="url(#blur)"/><path transform="translate(356.74 663.47) scale(0.19207)" d="M256 -67Q289 -67 314.5 -68.5Q340 -70 357 -74V-229Q347 -234 324.5 -237.5Q302 -241 270 -241Q249 -241 225.5 -238.0Q202 -235 182.5 -225.5Q163 -216 150.0 -199.5Q137 -183 137 -156Q137 -106 169.0 -86.5Q201 -67 256 -67ZM248 -533Q304 -533 342.5 -518.5Q381 -504 404.5 -477.5Q428 -451 438.0 -414.5Q448 -378 448 -334V-9Q436 -7 414.5 -3.5Q393 0 366.0 3.0Q339 6 307.5 8.5Q276 11 245 11Q201 11 164.0 2.0Q127 -7 100.0 -26.5Q73 -46 58.0 -78.0Q43 -110 43 -155Q43 -198 60.5 -229.0Q78 -260 108.0 -279.0Q138 -298 178.0 -307.0Q218 -316 262 -316Q276 -316 291.0 -314.5Q306 -313 319.5 -310.5Q333 -308 343.0 -306.0Q353 -304 357 -303V-329Q357 -352 352.0 -374.5Q347 -397 334.0 -414.5Q321 -432 298.5 -442.5Q276 -453 240 -453Q194 -453 159.5 -446.5Q125 -440 108 -433L97 -510Q115 -518 157.0 -525.5Q199 -533 248 -533ZM758.0 10Q672.0 8 636.0 -27.0Q600.0 -62 600.0 -136V-760L693.0 -776V-151Q693.0 -128 697.0 -113.0Q701.0 -98 710.0 -89.0Q719.0 -80 734.0 -75.5Q749.0 -71 771.0 -68ZM1051.0 -67Q1084.0 -67 1109.5 -68.5Q1135.0 -70 1152.0 -74V-229Q1142.0 -234 1119.5 -237.5Q1097.0 -241 1065.0 -241Q1044.0 -241 1020.5 -238.0Q997.0 -235 977.5 -225.5Q958.0 -216 945.0 -199.5Q932.0 -183 932.0 -156Q932.0 -106 964.0 -86.5Q996.0 -67 1051.0 -67ZM1043.0 -533Q1099.0 -533 1137.5 -518.5Q1176.0 -504 1199.5 -477.5Q1223.0 -451 1233.0 -414.5Q1243.0 -378 1243.0 -334V-9Q1231.0 -7 1209.5 -3.5Q1188.0 0 1161.0 3.0Q1134.0 6 1102.5 8.5Q1071.0 11 1040.0 11Q996.0 11 959.0 2.0Q922.0 -7 895.0 -26.5Q868.0 -46 853.0 -78.0Q838.0 -110 838.0 -155Q838.0 -198 855.5 -229.0Q873.0 -260 903.0 -279.0Q933.0 -298 973.0 -307.0Q1013.0 -316 1057.0 -316Q1071.0 -316 1086.0 -314.5Q1101.0 -313 1114.5 -310.5Q1128.0 -308 1138.0 -306.0Q1148.0 -304 1152.0 -303V-329Q1152.0 -352 1147.0 -374.5Q1142.0 -397 1129.0 -414.5Q1116.0 -432 1093.5 -442.5Q1071.0 -453 1035.0 -453Q989.0 -453 954.5 -446.5Q920.0 -440 903.0 -433L892.0 -510Q910.0 -518 952.0 -525.5Q994.0 -533 1043.0 -533ZM1589.0 -531Q1601.0 -531 1616.5 -529.5Q1632.0 -528 1647.0 -525.5Q1662.0 -523 1674.5 -520.5Q1687.0 -518 1693.0 -516L1677.0 -435Q1666.0 -439 1640.5 -444.5Q1615.0 -450 1575.0 -450Q1549.0 -450 1523.5 -444.5Q1498.0 -439 1490.0 -437V0H1397.0V-498Q1430.0 -510 1479.0 -520.5Q1528.0 -531 1589.0 -531ZM1783.0 -505Q1815.0 -513 1867.5 -522.0Q1920.0 -531 1989.0 -531Q2039.0 -531 2073.0 -517.5Q2107.0 -504 2130.0 -478Q2137.0 -483 2152.0 -492.0Q2167.0 -501 2189.0 -509.5Q2211.0 -518 2238.0 -524.5Q2265.0 -531 2296.0 -531Q2356.0 -531 2394.0 -513.5Q2432.0 -496 2453.5 -464.0Q2475.0 -432 2482.5 -388.0Q2490.0 -344 2490.0 -292V0H2397.0V-272Q2397.0 -318 2392.5 -351.0Q2388.0 -384 2375.5 -406.0Q2363.0 -428 2341.5 -438.5Q2320.0 -449 2286.0 -449Q2239.0 -449 2208.5 -436.5Q2178.0 -424 2167.0 -414Q2175.0 -388 2179.0 -357.0Q2183.0 -326 2183.0 -292V0H2090.0V-272Q2090.0 -318 2085.0 -351.0Q2080.0 -384 2067.5 -406.0Q2055.0 -428 2033.5 -438.5Q2012.0 -449 1979.0 -449Q1965.0 -449 1949.0 -448.0Q1933.0 -447 1918.5 -445.5Q1904.0 -444 1892.0 -442.0Q1880.0 -440 1876.0 -439V0H1783.0Z" fill="#F2561D" /><path d="M301.8 571.7 A46 46 0 0 0 301.8 628.3" fill="none" stroke="#fff" stroke-width="13" stroke-linecap="round"/><path d="M276.5 552.0 A78 78 0 0 0 276.5 648.0" fill="none" stroke="#fff" stroke-width="15" stroke-linecap="round"/><path d="M898.2 571.7 A46 46 0 0 1 898.2 628.3" fill="none" stroke="#fff" stroke-width="13" stroke-linecap="round"/><path d="M923.5 552.0 A78 78 0 0 1 923.5 648.0" fill="none" stroke="#fff" stroke-width="15" stroke-linecap="round"/></svg>